<svg class="logo" viewBox="0 0 200 200" xmlns="http://www.w3.org/2000/svg">
            <!-- Background circle for dock icon -->
            <circle cx="100" cy="100" r="95" fill="#6B46C1" stroke="#4C1D95" stroke-width="10"/>

            <!-- Clock face background -->
            <circle cx="100" cy="100" r="70" fill="#8B5CF6" opacity="0.3"/>

            <!-- Buddy character body (improved contrast) -->
            <ellipse cx="100" cy="120" rx="45" ry="35" fill="#5B21B6" stroke="#3B0764" stroke-width="2"/>

            <!-- Buddy character head -->
            <circle cx="100" cy="80" r="35" fill="#8B5CF6"/>

            <!-- Scarf -->
            <g>
                <!-- Main scarf around neck -->
                <ellipse cx="100" cy="105" rx="38" ry="12" fill="#F59E0B" stroke="#D97706" stroke-width="1"/>
                <!-- Scarf pattern/stripes -->
                <ellipse cx="100" cy="102" rx="35" ry="3" fill="#FCD34D" opacity="0.8"/>
                <ellipse cx="100" cy="108" rx="35" ry="3" fill="#FCD34D" opacity="0.8"/>
                <!-- Scarf ends flowing -->
                <path d="M 65 110 Q 58 125 62 140 Q 55 145 60 155" fill="#F59E0B" stroke="#D97706" stroke-width="1"/>
                <path d="M 135 110 Q 142 125 138 140 Q 145 145 140 155" fill="#F59E0B" stroke="#D97706" stroke-width="1"/>
                <!-- Small stripes on scarf ends -->
                <line x1="60" y1="125" x2="64" y2="125" stroke="#FCD34D" stroke-width="2"/>
                <line x1="58" y1="135" x2="62" y2="135" stroke="#FCD34D" stroke-width="2"/>
                <line x1="136" y1="125" x2="140" y2="125" stroke="#FCD34D" stroke-width="2"/>
                <line x1="138" y1="135" x2="142" y2="135" stroke="#FCD34D" stroke-width="2"/>
            </g>

            <!-- Eyes -->
            <circle cx="88" cy="75" r="8" fill="white"/>
            <circle cx="112" cy="75" r="8" fill="white"/>
            <circle cx="88" cy="77" r="4" fill="black"/>
            <circle cx="112" cy="77" r="4" fill="black"/>

            <!-- Friendly smile -->
            <path d="M 85 88 Q 100 98 115 88" stroke="white" stroke-width="3" fill="none" stroke-linecap="round"/>

            <!-- Clock hands as arms -->
            <g transform="translate(100,100)">
                <!-- Hour hand/arm pointing to 3 -->
                <line x1="0" y1="0" x2="25" y2="0" stroke="#FDE047" stroke-width="6" stroke-linecap="round"/>
                <circle cx="25" cy="0" r="4" fill="#FDE047"/>

                <!-- Minute hand/arm pointing to 12 -->
                <line x1="0" y1="0" x2="0" y2="-35" stroke="#FDE047" stroke-width="4" stroke-linecap="round"/>
                <circle cx="0" cy="-35" r="3" fill="#FDE047"/>
            </g>

            <!-- Clock center -->
            <circle cx="100" cy="100" r="6" fill="#FDE047"/>

            <!-- Clock markers -->
            <g stroke="#E5E7EB" stroke-width="2" opacity="0.7">
                <!-- 12 o'clock -->
                <line x1="100" y1="35" x2="100" y2="45"/>
                <!-- 3 o'clock -->
                <line x1="165" y1="100" x2="155" y2="100"/>
                <!-- 6 o'clock -->
                <line x1="100" y1="165" x2="100" y2="155"/>
                <!-- 9 o'clock -->
                <line x1="35" y1="100" x2="45" y2="100"/>
            </g>

            <!-- Small sparkles/time particles -->
            <g fill="#FDE047" opacity="0.8">
                <circle cx="65" cy="50" r="2"/>
                <circle cx="140" cy="45" r="1.5"/>
                <circle cx="155" cy="130" r="2"/>
                <circle cx="45" cy="140" r="1.5"/>
                <circle cx="70" cy="160" r="1"/>
                <circle cx="130" cy="165" r="1"/>
            </g>

            <!-- Feet -->
            <ellipse cx="85" cy="150" rx="8" ry="5" fill="#6D28D9"/>
            <ellipse cx="115" cy="150" rx="8" ry="5" fill="#6D28D9"/>
        </svg>